<svg width="0" height="0" class="hidden">
  <symbol fill="none" xmlns="http://www.w3.org/2000/svg" viewBox="0 0 216 216" id="TCL_Circle_FC">
    <path d="M108.16 209.65C164.57 209.65 210.3 163.92 210.3 107.51C210.3 51.0996 164.57 5.37 108.16 5.37C51.7496 5.37 6.02 51.0996 6.02 107.51C6.02 163.92 51.7496 209.65 108.16 209.65Z" fill="white"></path>
    <path fill-rule="evenodd" clip-rule="evenodd" d="M140.46 132.01V24.43C137.82 23.4 135.11 22.5 132.36 21.72C124.61 19.54 116.44 18.37 108 18.37C58.5 18.37 18.36 58.51 18.36 108.01C18.36 134.9 30.21 159.04 48.97 175.47V185.92C25.45 168.07 10.25 139.81 10.25 108.01C10.26 54.03 54.03 10.26 108 10.26C116.41 10.26 124.57 11.32 132.36 13.32C135.11 14.03 137.81 14.85 140.46 15.78C143.34 16.79 146.15 17.94 148.9 19.2V124.32H174.15V132H140.47L140.46 132.01ZM197.64 108C197.64 157.5 157.5 197.64 108 197.64C95.85 197.64 84.26 195.22 73.69 190.84C70.92 189.69 68.21 188.4 65.59 186.99V91.82H80.82V84H41.85V91.82H57.08V191.45C59.83 193.13 62.67 194.68 65.59 196.09C68.23 197.36 70.93 198.52 73.69 199.56C84.37 203.56 95.93 205.75 108 205.75C161.97 205.75 205.74 161.98 205.74 108.01C205.74 71.9 186.14 40.35 157.01 23.43V32.95C181.47 48.96 197.64 76.6 197.64 108.01V108ZM216 108C216 48.36 167.64 0 108 0C48.36 0 0 48.36 0 108C0 167.64 48.36 216 108 216C167.64 216 216 167.64 216 108ZM101.11 85.12C98.09 86.42 95.48 88.21 93.29 90.47C91.09 92.73 89.39 95.38 88.18 98.39C86.97 101.41 86.36 104.63 86.36 108.06C86.36 111.49 86.98 114.78 88.21 117.8C89.44 120.82 91.15 123.44 93.32 125.65C95.49 127.87 98.06 129.62 101.04 130.9C104.01 132.18 107.26 132.82 110.78 132.82C113.02 132.82 115.07 132.63 116.92 132.24C118.77 131.85 120.48 131.28 122.03 130.53C123.59 129.77 125.04 128.88 126.39 127.85C127.74 126.82 129.03 125.64 130.27 124.32L124.85 118.83C122.79 120.75 120.71 122.27 118.61 123.39C116.51 124.51 113.99 125.07 111.06 125.07C108.77 125.07 106.66 124.62 104.72 123.73C102.78 122.84 101.1 121.61 99.68 120.06C98.26 118.5 97.16 116.69 96.39 114.61C95.61 112.53 95.22 110.3 95.22 107.92C95.22 105.54 95.61 103.32 96.39 101.27C97.17 99.21 98.26 97.42 99.68 95.88C101.1 94.35 102.78 93.14 104.72 92.24C106.66 91.35 108.78 90.9 111.06 90.9C113.8 90.9 116.25 91.45 118.4 92.55C120.55 93.65 122.58 95.09 124.5 96.87L129.92 90.63C128.78 89.53 127.56 88.53 126.28 87.61C125 86.7 123.6 85.91 122.1 85.24C120.59 84.58 118.93 84.06 117.13 83.7C115.32 83.33 113.32 83.15 111.13 83.15C107.47 83.15 104.13 83.8 101.11 85.1V85.12Z" fill="#CE5527"></path>
  </symbol>
  <symbol fill="none" xmlns="http://www.w3.org/2000/svg" viewBox="0 0 216 216" id="TCL_Circle">
    <g clip-path="url(#clip0_40_41)">
      <path fill-rule="evenodd" clip-rule="evenodd" d="M140.46 132.01V24.43C137.82 23.4 135.11 22.5 132.36 21.72C124.61 19.54 116.44 18.37 108 18.37C58.5 18.37 18.36 58.51 18.36 108.01C18.36 134.9 30.21 159.04 48.97 175.47V185.92C25.45 168.07 10.25 139.81 10.25 108.01C10.26 54.03 54.03 10.26 108 10.26C116.41 10.26 124.57 11.32 132.36 13.32C135.11 14.03 137.81 14.85 140.46 15.78C143.34 16.79 146.15 17.94 148.9 19.2V124.32H174.15V132H140.47L140.46 132.01ZM197.64 108C197.64 157.5 157.5 197.64 108 197.64C95.85 197.64 84.26 195.22 73.69 190.84C70.92 189.69 68.21 188.4 65.59 186.99V91.82H80.82V84H41.85V91.82H57.08V191.45C59.83 193.13 62.67 194.68 65.59 196.09C68.23 197.36 70.93 198.52 73.69 199.56C84.37 203.56 95.93 205.75 108 205.75C161.97 205.75 205.74 161.98 205.74 108.01C205.74 71.9 186.14 40.35 157.01 23.43V32.95C181.47 48.96 197.64 76.6 197.64 108.01V108ZM216 108C216 48.36 167.64 0 108 0C48.36 0 0 48.36 0 108C0 167.64 48.36 216 108 216C167.64 216 216 167.64 216 108ZM101.11 85.12C98.09 86.42 95.48 88.21 93.29 90.47C91.09 92.73 89.39 95.38 88.18 98.39C86.97 101.41 86.36 104.63 86.36 108.06C86.36 111.49 86.98 114.78 88.21 117.8C89.44 120.82 91.15 123.44 93.32 125.65C95.49 127.87 98.06 129.62 101.04 130.9C104.01 132.18 107.26 132.82 110.78 132.82C113.02 132.82 115.07 132.63 116.92 132.24C118.77 131.85 120.48 131.28 122.03 130.53C123.59 129.77 125.04 128.88 126.39 127.85C127.74 126.82 129.03 125.64 130.27 124.32L124.85 118.83C122.79 120.75 120.71 122.27 118.61 123.39C116.51 124.51 113.99 125.07 111.06 125.07C108.77 125.07 106.66 124.62 104.72 123.73C102.78 122.84 101.1 121.61 99.68 120.06C98.26 118.5 97.16 116.69 96.39 114.61C95.61 112.53 95.22 110.3 95.22 107.92C95.22 105.54 95.61 103.32 96.39 101.27C97.17 99.21 98.26 97.42 99.68 95.88C101.1 94.35 102.78 93.14 104.72 92.24C106.66 91.35 108.78 90.9 111.06 90.9C113.8 90.9 116.25 91.45 118.4 92.55C120.55 93.65 122.58 95.09 124.5 96.87L129.92 90.63C128.78 89.53 127.56 88.53 126.28 87.61C125 86.7 123.6 85.91 122.1 85.24C120.59 84.58 118.93 84.06 117.13 83.7C115.32 83.33 113.32 83.15 111.13 83.15C107.47 83.15 104.13 83.8 101.11 85.1V85.12Z" fill="#CE5527"></path>
    </g>
    <defs>
      <clipPath id="clip0_40_41">
        <rect width="216" height="216" fill="white"></rect>
      </clipPath>
    </defs>
  </symbol>
  <symbol fill="none" xmlns="http://www.w3.org/2000/svg" viewBox="0 0 268 78" id="TCL_Logo_OneColor">
    <g clip-path="url(#clip0_40_2)">
      <path d="M267.29 40.55V32.52H258.97V34.56H265.1V39.57C264.41 40.13 263.56 40.6 262.54 40.99C261.52 41.38 260.44 41.58 259.29 41.58C258.06 41.58 256.96 41.37 255.98 40.95C255 40.53 254.17 39.94 253.48 39.19C252.79 38.44 252.26 37.55 251.88 36.53C251.51 35.5 251.32 34.39 251.32 33.18C251.32 32.05 251.51 30.98 251.9 29.97C252.28 28.96 252.81 28.09 253.48 27.34C254.15 26.59 254.96 26 255.9 25.56C256.84 25.12 257.87 24.9 258.98 24.9C259.69 24.9 260.34 24.96 260.92 25.07C261.51 25.18 262.04 25.34 262.53 25.54C263.02 25.74 263.47 25.98 263.9 26.26C264.32 26.54 264.72 26.85 265.11 27.2L266.58 25.47C266.08 25.05 265.57 24.67 265.04 24.33C264.51 23.99 263.95 23.71 263.34 23.48C262.74 23.25 262.08 23.08 261.38 22.96C260.68 22.84 259.91 22.79 259.06 22.79C257.54 22.79 256.17 23.07 254.93 23.64C253.69 24.21 252.63 24.97 251.75 25.93C250.87 26.89 250.18 28 249.69 29.27C249.2 30.54 248.96 31.86 248.96 33.24C248.96 34.62 249.2 36.03 249.67 37.3C250.14 38.57 250.82 39.67 251.71 40.61C252.6 41.55 253.68 42.29 254.93 42.83C256.19 43.37 257.61 43.64 259.2 43.64C260.91 43.64 262.45 43.34 263.82 42.73C265.19 42.13 266.35 41.4 267.29 40.56V40.55ZM166.16 31.95L174.79 23.15H171.86L160.29 35.18V23.15H158.02V43.29H160.29V37.88L164.58 33.54L172.32 43.29H175.17L166.16 31.95ZM153.45 43.28L147.26 35.05C148.05 34.92 148.78 34.69 149.45 34.36C150.12 34.03 150.7 33.63 151.19 33.14C151.68 32.65 152.06 32.08 152.33 31.41C152.6 30.75 152.73 30 152.73 29.15C152.73 28.25 152.56 27.43 152.21 26.69C151.86 25.95 151.38 25.32 150.74 24.79C150.11 24.26 149.34 23.86 148.45 23.57C147.56 23.28 146.56 23.14 145.44 23.14H136.78V43.28H139.05V35.45H144.8L150.64 43.28H153.43H153.45ZM150.43 29.24C150.43 29.89 150.3 30.48 150.04 30.99C149.78 31.51 149.42 31.94 148.96 32.3C148.5 32.65 147.95 32.93 147.32 33.12C146.69 33.31 146 33.41 145.25 33.41H139.06V25.24H145.28C146.91 25.24 148.18 25.59 149.08 26.29C149.98 26.99 150.43 27.97 150.43 29.24ZM123.21 23H121.08L111.9 43.29H114.23L116.62 37.97H127.58L129.94 43.29H132.39L123.21 23ZM126.69 35.92H117.51L122.11 25.65L126.68 35.92H126.69ZM105.24 26.97V43.28H107.51V23.14H105.21L97.87 34.13L90.53 23.14H88.23V43.28H90.45V26.99L97.79 37.75H97.91L105.25 26.96L105.24 26.97ZM206.46 25.24H213.22V23.14H197.39V25.24H204.15V43.28H206.45V25.24H206.46ZM218.1 23.14V43.28H220.37V23.14H218.1ZM241.52 39.28L228.83 23.14H226.7V43.28H228.92V26.76L241.93 43.28H243.74V23.14H241.52V39.28Z" fill="#231F20"></path>
      <path fill-rule="evenodd" clip-rule="evenodd" d="M50.53 47.49V8.79C49.58 8.42 48.61 8.09 47.62 7.82C44.83 7.03 41.89 6.61 38.86 6.61C21.05 6.61 6.61 21.05 6.61 38.85C6.61 48.52 10.87 57.21 17.62 63.12V66.88C9.16 60.46 3.69 50.29 3.69 38.85C3.69 19.44 19.44 3.69 38.85 3.69C41.88 3.69 44.81 4.07 47.61 4.79C48.6 5.04 49.57 5.34 50.52 5.68C51.55 6.04 52.57 6.46 53.56 6.91V44.72H62.64V47.48H50.52L50.53 47.49ZM71.1 38.85C71.1 56.66 56.66 71.1 38.85 71.1C34.48 71.1 30.31 70.23 26.51 68.65C25.51 68.24 24.54 67.77 23.6 67.27V33.03H29.08V30.22H15.06V33.03H20.54V68.87C21.53 69.47 22.55 70.03 23.6 70.54C24.55 71 25.52 71.41 26.51 71.79C30.35 73.23 34.51 74.02 38.85 74.02C58.27 74.02 74.01 58.27 74.01 38.86C74.01 25.87 66.96 14.52 56.48 8.43V11.85C65.28 17.61 71.1 27.55 71.1 38.85ZM77.7 38.85C77.7 17.4 60.31 0 38.85 0C17.39 0 0 17.4 0 38.85C0 60.3 17.4 77.7 38.85 77.7C60.3 77.7 77.7 60.3 77.7 38.85ZM36.37 30.62C35.28 31.09 34.35 31.73 33.56 32.54C32.77 33.35 32.16 34.3 31.72 35.39C31.28 36.48 31.07 37.64 31.07 38.87C31.07 40.1 31.29 41.29 31.74 42.37C32.18 43.46 32.8 44.4 33.58 45.2C34.36 46 35.29 46.63 36.36 47.09C37.43 47.55 38.6 47.78 39.86 47.78C40.67 47.78 41.4 47.71 42.07 47.57C42.74 47.43 43.35 47.22 43.91 46.95C44.47 46.68 44.99 46.36 45.48 45.99C45.97 45.62 46.43 45.2 46.87 44.72L44.92 42.75C44.18 43.44 43.43 43.99 42.67 44.39C41.91 44.79 41.01 44.99 39.96 44.99C39.14 44.99 38.38 44.83 37.68 44.51C36.98 44.19 36.38 43.75 35.87 43.19C35.36 42.63 34.97 41.98 34.69 41.23C34.41 40.48 34.27 39.68 34.27 38.82C34.27 37.96 34.41 37.17 34.69 36.43C34.97 35.69 35.36 35.04 35.87 34.49C36.38 33.94 36.98 33.5 37.68 33.18C38.38 32.86 39.14 32.7 39.96 32.7C40.95 32.7 41.83 32.9 42.6 33.29C43.37 33.68 44.11 34.2 44.8 34.84L46.75 32.59C46.34 32.2 45.9 31.83 45.44 31.5C44.98 31.17 44.48 30.89 43.93 30.65C43.39 30.41 42.79 30.23 42.14 30.09C41.49 29.96 40.77 29.89 39.98 29.89C38.66 29.89 37.46 30.12 36.38 30.59L36.37 30.62Z" fill="#231F20"></path>
      <path d="M193.83 41.21H179.13V43.28H193.83V41.21Z" fill="#231F20"></path>
      <path d="M193.83 32.18H179.13V34.25H193.83V32.18Z" fill="#231F20"></path>
      <path d="M193.83 23.14H179.13V25.21H193.83V23.14Z" fill="#231F20"></path>
      <path d="M88.12 49.79H93.09V50.51H88.9V52.98H92.64V53.69H88.9V56.7H88.12V49.79Z" fill="#231F20"></path>
      <path d="M94.39 54.77V51.6H95.15V54.58C95.15 55.53 95.66 56.12 96.56 56.12C97.46 56.12 98.09 55.48 98.09 54.52V51.6H98.84V56.7H98.09V55.81C97.74 56.36 97.22 56.81 96.34 56.81C95.11 56.81 94.39 55.98 94.39 54.77Z" fill="#231F20"></path>
      <path d="M100.62 49.5H101.38V56.71H100.62V49.5Z" fill="#231F20"></path>
      <path d="M103.21 49.5H103.97V56.71H103.21V49.5Z" fill="#231F20"></path>
      <path d="M105.53 53.34H108.27V54.14H105.53V53.34Z" fill="#231F20"></path>
      <path d="M109.44 55.7L109.92 55.13C110.64 55.78 111.33 56.11 112.29 56.11C113.25 56.11 113.83 55.62 113.83 54.94V54.92C113.83 54.28 113.48 53.91 112.03 53.61C110.44 53.26 109.71 52.75 109.71 51.62V51.6C109.71 50.51 110.67 49.72 111.98 49.72C112.99 49.72 113.71 50.01 114.41 50.57L113.96 51.17C113.32 50.65 112.68 50.42 111.97 50.42C111.07 50.42 110.5 50.91 110.5 51.54V51.56C110.5 52.21 110.86 52.58 112.38 52.9C113.92 53.24 114.63 53.8 114.63 54.85V54.87C114.63 56.05 113.64 56.82 112.27 56.82C111.17 56.82 110.28 56.45 109.45 55.71L109.44 55.7Z" fill="#231F20"></path>
      <path d="M115.77 54.17V54.15C115.77 52.68 116.81 51.49 118.22 51.49C119.73 51.49 120.6 52.69 120.6 54.18C120.6 54.28 120.6 54.34 120.6 54.43H116.55C116.66 55.54 117.44 56.16 118.35 56.16C119.05 56.16 119.54 55.87 119.96 55.44L120.43 55.86C119.92 56.43 119.29 56.82 118.33 56.82C116.93 56.82 115.78 55.74 115.78 54.16L115.77 54.17ZM119.83 53.87C119.75 52.94 119.22 52.13 118.2 52.13C117.31 52.13 116.64 52.87 116.54 53.87H119.83Z" fill="#231F20"></path>
      <path d="M121.93 51.6H122.69V52.93C123.07 52.08 123.81 51.47 124.77 51.51V52.33H124.71C123.59 52.33 122.69 53.13 122.69 54.67V56.7H121.93V51.6Z" fill="#231F20"></path>
      <path d="M125.43 51.6H126.27L127.99 55.84L129.72 51.6H130.54L128.32 56.74H127.65L125.44 51.6H125.43Z" fill="#231F20"></path>
      <path d="M131.75 49.65H132.62V50.49H131.75V49.65ZM131.8 51.6H132.56V56.7H131.8V51.6Z" fill="#231F20"></path>
      <path d="M134.01 54.16C134.01 52.72 135.13 51.49 136.63 51.49C137.6 51.49 138.2 51.89 138.67 52.4L138.17 52.93C137.76 52.51 137.31 52.16 136.62 52.16C135.58 52.16 134.79 53.04 134.79 54.13V54.15C134.79 55.26 135.6 56.13 136.67 56.13C137.32 56.13 137.83 55.8 138.23 55.37L138.71 55.82C138.2 56.39 137.59 56.81 136.63 56.81C135.14 56.81 134.01 55.6 134.01 54.16Z" fill="#231F20"></path>
      <path d="M139.5 54.17V54.15C139.5 52.68 140.54 51.49 141.95 51.49C143.46 51.49 144.33 52.69 144.33 54.18C144.33 54.28 144.33 54.34 144.33 54.43H140.28C140.39 55.54 141.17 56.16 142.08 56.16C142.78 56.16 143.28 55.87 143.69 55.44L144.16 55.86C143.65 56.43 143.03 56.82 142.06 56.82C140.66 56.82 139.51 55.74 139.51 54.16L139.5 54.17ZM143.56 53.87C143.48 52.94 142.95 52.13 141.93 52.13C141.04 52.13 140.37 52.87 140.27 53.87H143.56Z" fill="#231F20"></path>
      <path d="M145.17 57.56C145.66 57.38 145.87 57.13 145.83 56.7H145.47V55.66H146.38V56.55C146.38 57.35 146.04 57.73 145.28 57.9L145.16 57.55L145.17 57.56Z" fill="#231F20"></path>
      <path d="M152.87 50.51H150.54V49.79H155.98V50.51H153.65V56.7H152.87V50.51Z" fill="#231F20"></path>
      <path d="M157.4 49.79H160.37C161.22 49.79 161.9 50.05 162.33 50.48C162.66 50.82 162.86 51.3 162.86 51.84V51.86C162.86 53 162.07 53.68 160.98 53.87L163.1 56.69H162.14L160.14 54.01H158.17V56.69H157.39V49.78L157.4 49.79ZM160.3 53.32C161.34 53.32 162.08 52.79 162.08 51.9V51.88C162.08 51.03 161.43 50.52 160.31 50.52H158.18V53.32H160.3Z" fill="#231F20"></path>
      <path d="M167.1 49.74H167.83L170.98 56.7H170.14L169.33 54.87H165.57L164.75 56.7H163.95L167.1 49.74ZM169.02 54.18L167.45 50.66L165.87 54.18H169.02Z" fill="#231F20"></path>
      <path d="M172.34 49.79H173.07L177.42 55.33V49.79H178.18V56.7H177.56L173.1 51.03V56.7H172.34V49.79Z" fill="#231F20"></path>
      <path d="M179.69 55.7L180.17 55.13C180.89 55.78 181.58 56.11 182.54 56.11C183.5 56.11 184.08 55.62 184.08 54.94V54.92C184.08 54.28 183.74 53.91 182.28 53.61C180.69 53.26 179.96 52.75 179.96 51.62V51.6C179.96 50.51 180.92 49.72 182.23 49.72C183.24 49.72 183.96 50.01 184.66 50.57L184.21 51.17C183.57 50.65 182.93 50.42 182.22 50.42C181.32 50.42 180.75 50.91 180.75 51.54V51.56C180.75 52.21 181.11 52.58 182.63 52.9C184.17 53.24 184.88 53.8 184.88 54.85V54.87C184.88 56.05 183.89 56.82 182.52 56.82C181.42 56.82 180.53 56.45 179.7 55.71L179.69 55.7Z" fill="#231F20"></path>
      <path d="M186.46 49.79H189.05C190.61 49.79 191.64 50.62 191.64 51.98V52C191.64 53.49 190.4 54.26 188.93 54.26H187.25V56.7H186.47V49.79H186.46ZM188.95 53.55C190.1 53.55 190.85 52.94 190.85 52.03V52.01C190.85 51.02 190.11 50.51 188.99 50.51H187.24V53.55H188.95Z" fill="#231F20"></path>
      <path d="M194.93 49.74H195.66L198.81 56.7H197.97L197.16 54.87H193.4L192.58 56.7H191.78L194.93 49.74ZM196.85 54.18L195.28 50.66L193.7 54.18H196.85Z" fill="#231F20"></path>
      <path d="M200.17 49.79H203.14C203.99 49.79 204.67 50.05 205.1 50.48C205.43 50.82 205.63 51.3 205.63 51.84V51.86C205.63 53 204.84 53.68 203.75 53.87L205.87 56.69H204.91L202.91 54.01H200.94V56.69H200.16V49.78L200.17 49.79ZM203.07 53.32C204.11 53.32 204.85 52.79 204.85 51.9V51.88C204.85 51.03 204.2 50.52 203.08 50.52H200.95V53.32H203.07Z" fill="#231F20"></path>
      <path d="M207.31 49.79H212.31V50.5H208.09V52.86H211.86V53.57H208.09V55.99H212.36V56.7H207.32V49.79H207.31Z" fill="#231F20"></path>
      <path d="M213.93 49.79H214.66L219.01 55.33V49.79H219.77V56.7H219.15L214.69 51.03V56.7H213.93V49.79Z" fill="#231F20"></path>
      <path d="M223.52 50.51H221.19V49.79H226.63V50.51H224.3V56.7H223.52V50.51Z" fill="#231F20"></path>
      <path d="M233.57 49.74H234.3L237.45 56.7H236.61L235.8 54.87H232.04L231.22 56.7H230.42L233.57 49.74ZM235.5 54.18L233.93 50.66L232.35 54.18H235.5Z" fill="#231F20"></path>
      <path d="M238.38 57.59L238.73 57C239.31 57.42 239.96 57.65 240.69 57.65C241.82 57.65 242.55 57.03 242.55 55.83V55.23C242.11 55.82 241.48 56.31 240.55 56.31C239.33 56.31 238.15 55.39 238.15 53.92V53.9C238.15 52.41 239.33 51.49 240.55 51.49C241.51 51.49 242.13 51.96 242.54 52.52V51.6H243.3V55.81C243.3 56.6 243.06 57.2 242.65 57.62C242.2 58.07 241.51 58.3 240.7 58.3C239.89 58.3 239.06 58.06 238.38 57.59ZM242.57 53.91V53.89C242.57 52.84 241.66 52.16 240.69 52.16C239.72 52.16 238.92 52.83 238.92 53.88V53.9C238.92 54.93 239.74 55.64 240.69 55.64C241.64 55.64 242.57 54.94 242.57 53.91Z" fill="#231F20"></path>
      <path d="M244.68 54.17V54.15C244.68 52.68 245.72 51.49 247.13 51.49C248.64 51.49 249.51 52.69 249.51 54.18C249.51 54.28 249.51 54.34 249.51 54.43H245.46C245.57 55.54 246.35 56.16 247.26 56.16C247.96 56.16 248.46 55.87 248.87 55.44L249.34 55.86C248.83 56.43 248.21 56.82 247.24 56.82C245.84 56.82 244.69 55.74 244.69 54.16L244.68 54.17ZM248.74 53.87C248.66 52.94 248.13 52.13 247.11 52.13C246.22 52.13 245.55 52.87 245.45 53.87H248.74Z" fill="#231F20"></path>
      <path d="M250.84 51.6H251.6V52.49C251.94 51.94 252.47 51.49 253.35 51.49C254.58 51.49 255.31 52.32 255.31 53.53V56.7H254.55V53.72C254.55 52.77 254.04 52.18 253.14 52.18C252.24 52.18 251.61 52.82 251.61 53.78V56.7H250.85V51.6H250.84Z" fill="#231F20"></path>
      <path d="M256.61 54.16C256.61 52.72 257.73 51.49 259.23 51.49C260.2 51.49 260.8 51.89 261.27 52.4L260.77 52.93C260.36 52.51 259.91 52.16 259.22 52.16C258.18 52.16 257.39 53.04 257.39 54.13V54.15C257.39 55.26 258.2 56.13 259.27 56.13C259.92 56.13 260.43 55.8 260.83 55.37L261.31 55.82C260.8 56.39 260.19 56.81 259.23 56.81C257.74 56.81 256.61 55.6 256.61 54.16Z" fill="#231F20"></path>
      <path d="M266.34 51.6H267.15L265.01 56.87C264.58 57.93 264.08 58.31 263.31 58.31C262.89 58.31 262.57 58.22 262.22 58.05L262.48 57.45C262.73 57.58 262.95 57.64 263.28 57.64C263.73 57.64 264.02 57.4 264.33 56.68L262.01 51.6H262.85L264.71 55.85L266.35 51.6H266.34Z" fill="#231F20"></path>
    </g>
    <defs>
      <clipPath id="clip0_40_2">
        <rect width="267.29" height="77.7" fill="white"></rect>
      </clipPath>
    </defs>
  </symbol>
  <symbol fill="none" xmlns="http://www.w3.org/2000/svg" viewBox="0 0 512 184" id="WoW_Logo">
    <path d="M47.27 149.64H47.79C74.95 121.7 126.14 62.41 141.03 44.13C144.42 39.95 146.25 35.25 151.74 35.25C159.83 35.25 169.5 40.99 169.5 43.35C169.5 52.23 124.58 135.8 124.58 153.83C124.58 158.27 129.28 160.35 133.46 160.35C152.27 160.35 204.5 96.89 224.09 18.54C225.13 14.36 243.68 8.09 247.33 8.09C249.16 8.09 249.68 10.7 249.68 13.58C249.68 44.92 188.31 183.86 132.16 183.86C112.31 183.86 100.56 174.2 100.56 154.87C100.56 140.76 115.45 112.04 122.23 99.5H121.71C69.74 158.27 51.98 183.86 32.39 183.86C24.56 183.86 16.2 179.42 16.2 169.23C16.2 146.25 76.53 48.05 76.53 28.99C76.53 24.55 74.18 23.51 71.05 23.51C52.51 23.51 41.8 38.14 28.48 79.66C26.39 86.19 9.68001 95.59 3.93001 95.59C0.280013 95.59 0.0100128 93.76 0.0100128 90.89C1.27876e-05 75.74 24.81 0 71.82 0C87.75 0 102.64 8.09 102.64 23.77C102.64 32.13 99.24 43.62 94.28 53.8L47.27 149.64Z" fill="#0054A6"></path>
    <path d="M291.87 79C288.1 87.56 280.49 91.11 274.33 91.11H273.55C269.15 95.94 263.67 99.33 257.32 99.33C249.11 99.33 243.07 95.35 241.91 87.22C240.15 74.85 251.68 55.62 267.52 55.62C270.35 55.62 272.93 56.23 275.59 56.72C280.11 57.56 282.43 60.11 282.91 63.5C283.78 69.6 282.04 77.31 278.41 84.09C279.02 84.26 279.53 84.43 280.12 84.43C285.79 84.43 288.8 76.04 290.17 76.04C290.95 76.04 291.79 77.14 291.95 78.24C292 78.58 291.94 78.83 291.86 79H291.87ZM272.46 61.47C264.74 61.47 254.41 76.13 255.84 86.21C256.25 89.09 257.71 91.12 260.74 91.12C262.5 91.12 264.16 90.44 265.77 89.34C268.76 87.49 270.93 84.48 272.39 82.08C275.15 76.74 277.18 69.18 276.7 65.79C276.4 63.67 275.3 61.47 272.47 61.47H272.46Z" fill="#0054A6"></path>
    <path d="M309.17 98.91C303.01 98.91 297.78 95.78 296.91 89.68C295.73 81.38 306.76 66.13 306.72 65.87C306.7 65.7 303.3 64.51 301.64 64.51C301.25 64.51 300.97 64.6 300.89 64.77C297.07 71.55 293.15 77.73 290.34 81.97C290.11 82.39 289.75 82.65 289.36 82.65C288.48 82.65 287.75 81.64 287.53 80.11C287.45 79.52 287.91 78.67 288.15 78.25C289.19 76.64 291.26 73.34 293.22 68.51C295.43 63.43 295.5 59.78 296.81 55.97C298.16 51.74 299.51 50.89 302.73 50.89C304.2 50.89 305.09 51.65 305.29 53.09C305.53 54.78 304.65 55.46 304.69 55.72C304.74 56.06 305.36 56.31 306.93 56.31C311.52 56.31 316.9 55.63 318.27 55.63C321.01 55.63 325.29 60.29 325.56 62.24C325.78 63.77 322.94 65.12 321.09 67.24C317.87 70.72 309.55 83 310.49 89.61C310.57 90.2 311.06 90.88 312.04 90.88C314.48 90.88 320.08 86.75 323.16 83.41C327.19 79.03 330.03 75.7 330.52 75.7C331.4 75.7 330.48 81.72 329.29 82.71C327.19 84.46 317.68 98.93 309.18 98.93L309.17 98.91Z" fill="#0054A6"></path>
    <path d="M339.57 83.32C339.05 85.86 338.79 88.15 339.08 90.18C339.31 91.79 341.26 93.14 343.32 93.14C352.61 93.14 362.03 75.52 363.1 75.52C364.17 75.52 364.63 77.38 364.77 78.32C365.19 81.28 352.56 98.99 339.95 98.99C334.18 98.99 327.75 93.65 327.19 89.67C325.26 76.11 347.44 30.9 366.31 30.9C370.12 30.9 373.43 32.85 373.63 34.2C374.12 37.67 355.28 75.43 339.59 83.31L339.57 83.32ZM366.13 37.94C364.66 37.94 349.53 59.17 342.69 74.34C352.19 66.88 366.67 39.72 366.46 38.19C366.44 38.02 366.23 37.94 366.13 37.94Z" fill="#0054A6"></path>
    <path d="M397.77 89.08C397.89 89.93 398.46 90.52 399.44 90.52C405.7 90.52 413.83 75.52 414.71 75.52C415.69 75.52 416.29 76.96 416.51 78.57C416.74 80.18 405.07 98.48 396.46 98.48C390.2 98.48 386.22 94.5 384.9 91.45C383.8 93.31 378.87 99.24 372.62 99.24C367.24 99.24 361.42 95.43 360.35 87.89C358.58 75.43 372.79 55.78 388.82 55.78C394.39 55.78 396.29 60.86 396.5 61.63C398.56 57.56 409 30.82 410.96 30.82C414.87 30.82 418.06 34.72 418.46 37.51C418.93 40.81 396.78 82.13 397.77 89.08ZM387.6 60.87C379.29 60.87 371.28 78.75 372.43 86.88C372.77 89.25 373.95 90.69 376 90.69C381.57 90.69 392.64 68.83 392.33 66.71C391.72 62.39 389.54 60.86 387.59 60.86L387.6 60.87Z" fill="#0054A6"></path>
    <path d="M510.82 62.51C510.26 62.51 507.92 61.72 503.98 61.72C502.3 61.72 501.39 61.98 497.87 62.24C498.08 70.79 493.4 86.06 486.59 98.45C478.17 113.72 466.32 126.28 461.92 126.28C459.95 126.28 458.2 123.4 457.92 121.13C457.33 116.33 468.55 96.35 477.56 77.51C480.18 72.19 482.58 67.3 484.68 63.03C482.78 62.77 481.18 61.2 480.59 58.67C480.24 57.36 480.24 55.79 480.35 55.18C480.38 54.66 480.54 54.48 481.2 54.48C481.67 54.48 482.76 55 483.89 55C485.2 55 487.8 54.04 489.02 54.04C491.96 48.28 493.86 44.62 494.56 43.48C495.99 41.39 499.3 36.33 501.92 36.33C503.7 36.33 506.2 37.64 506.37 39.04C506.51 40.17 503.55 48.11 500.26 53.35H500.82C505.77 53.26 508.69 55.71 509.39 57.54C510.22 59.72 511.23 61.12 511.33 61.9C511.37 62.25 511.12 62.51 510.84 62.51H510.82ZM490.79 72.46C490.6 72.46 485.7 82.06 481.92 90.17C478.15 98.37 472.69 109.54 472.71 109.71C472.73 109.88 472.84 109.97 473.02 109.97C473.11 109.97 479.66 101.51 484.57 91.21C489.13 81.87 491.23 72.98 491.19 72.71C491.17 72.54 490.97 72.45 490.78 72.45L490.79 72.46Z" fill="#0054A6"></path>
    <path d="M480.72 79.27C476.95 87.83 467.92 91.38 461.76 91.38H460.98C456.58 96.21 451.1 99.6 444.75 99.6C436.54 99.6 430.5 95.62 429.34 87.48C427.58 75.11 439.12 55.88 454.95 55.88C457.79 55.88 460.46 56.47 463.03 56.98C467.53 57.88 469.87 60.37 470.35 63.76C471.22 69.86 469.48 77.57 465.85 84.35C466.46 84.52 466.97 84.69 467.56 84.69C473.23 84.69 477.67 76.3 479.04 76.3C479.82 76.3 480.66 77.4 480.82 78.5C480.87 78.84 480.81 79.09 480.73 79.26L480.72 79.27ZM459.89 61.73C452.17 61.73 441.83 76.39 443.27 86.47C443.68 89.35 445.14 91.38 448.17 91.38C449.93 91.38 451.59 90.7 453.2 89.6C454.74 88.64 455.91 87.3 457.37 85.47C458.83 83.64 459.95 81.58 459.97 81.56C462.71 76.23 464.61 69.42 464.13 66.05C463.83 63.93 462.73 61.73 459.9 61.73H459.89Z" fill="#0054A6"></path>
    <path d="M207.43 180.27C202.54 180.27 198.71 175.36 198.03 170.53C196.56 160.19 208.77 138.84 213.5 137.06C213.88 136.97 214.85 136.89 216.02 136.89C218.46 136.89 221.95 137.31 222.15 138.75C222.17 138.92 222.11 139.17 221.95 139.43C220.38 142.82 208.87 165.02 209.7 170.86C209.88 172.13 210.54 172.64 211.32 172.64C217.38 172.64 226.34 156.63 227.22 156.63C228.3 156.63 228.67 158.58 228.84 159.77C229.06 161.29 217.58 180.27 207.42 180.27H207.43Z" fill="#0054A6"></path>
    <path d="M255.22 180.19C250.63 180.19 245.78 177.06 245.15 172.65C243.78 162.99 252.09 149.27 254.19 146.22L253.77 146.05C249.03 150.54 239.93 160.79 235.48 167.99C231.12 175.11 229.87 180.11 227.82 180.11C225.77 180.11 221.2 177.57 220.76 174.43C220.19 170.45 234.04 136.56 238.34 136.56C239.81 136.56 245.24 137.66 245.58 140.03C245.88 142.15 243.45 148.42 243.17 149.86L243.28 149.95C244.82 148.43 254.36 137.16 259.74 137.16C263.36 137.16 268.35 139.28 268.57 140.8C268.9 143.09 267.93 144.53 266.88 146.81C265.93 149.1 257.35 166.38 257.86 170.02C258 171.04 258.41 171.8 260.36 171.8C265.44 171.8 273.94 156.63 274.82 156.63C275.7 156.63 276.3 158.07 276.5 159.51C276.85 161.97 264.78 180.18 255.2 180.18L255.22 180.19Z" fill="#0054A6"></path>
    <path d="M309.53 170.28C309.65 171.13 310.22 171.72 311.2 171.72C317.46 171.72 325.59 156.72 326.47 156.72C327.45 156.72 328.05 158.16 328.28 159.77C328.51 161.38 316.84 179.68 308.23 179.68C301.97 179.68 297.99 175.7 296.67 172.65C295.57 174.51 290.64 180.45 284.39 180.45C279.01 180.45 273.19 176.64 272.12 169.1C270.35 156.65 284.56 136.99 300.59 136.99C306.16 136.99 308.06 142.07 308.27 142.84C310.33 138.77 320.77 112.03 322.73 112.03C326.64 112.03 329.83 115.93 330.23 118.72C330.7 122.02 308.55 163.34 309.54 170.29L309.53 170.28ZM299.36 142.06C291.05 142.06 283.04 159.94 284.19 168.07C284.53 170.44 285.71 171.88 287.76 171.88C293.33 171.88 304.4 150.02 304.09 147.9C303.48 143.58 301.3 142.05 299.35 142.05L299.36 142.06Z" fill="#0054A6"></path>
    <path d="M375.61 160.2C371.84 168.76 362.81 172.31 356.65 172.31H355.87C351.47 177.14 345.99 180.53 339.64 180.53C331.43 180.53 325.39 176.55 324.23 168.41C322.47 156.04 334.01 136.81 349.84 136.81C352.68 136.81 355.35 137.4 357.92 137.91C362.42 138.81 364.76 141.3 365.24 144.69C366.11 150.79 364.37 158.5 360.74 165.28C361.35 165.45 361.86 165.62 362.45 165.62C368.12 165.62 372.56 157.23 373.93 157.23C374.71 157.23 375.55 158.33 375.71 159.43C375.76 159.77 375.7 160.02 375.62 160.19L375.61 160.2ZM354.78 142.66C347.06 142.66 336.72 157.32 338.16 167.4C338.57 170.28 340.03 172.31 343.06 172.31C344.82 172.31 346.48 171.63 348.09 170.53C349.63 169.57 350.8 168.23 352.26 166.4C353.74 164.53 354.84 162.51 354.86 162.49C357.6 157.16 359.5 150.35 359.02 146.98C358.72 144.86 357.62 142.66 354.79 142.66H354.78Z" fill="#0054A6"></path>
    <path d="M402.05 169.27C400.58 173.32 403.3 173.49 406 171.08C410 167.51 412.39 163.59 415.3 158.35C419.25 151.21 420.64 143.73 421.32 141.58C421.63 140.6 421.94 139.47 421.94 139.47C421.94 139.47 422.22 138.37 423.27 137.81C424.67 137.06 427.9 136.43 430.39 136.08C434.13 135.55 432.89 137.44 432.44 140.39C431.53 146.39 428.2 154.07 425.46 159.45C423.98 162.35 422.08 165.99 419.35 169.64C417.95 171.5 416.53 172.93 414.53 175.11C411.84 178.04 408.59 180.13 405.6 180.65C403.83 180.96 402.34 180.89 401.24 180.74C399.35 180.48 398.44 180.04 398.44 180.04C395.29 178.64 392.75 176.45 392.89 173.77C393.11 169.52 393.71 166.1 397.06 156.54C389.41 169.89 378.85 179.54 378.46 179.77C378.16 180.07 377.37 180.42 376.79 180.42C374.05 180.42 369.41 176.59 369.24 174.72C369.01 172.17 372.76 159.57 375.21 151.05C377.07 144.43 378.44 141.01 379.41 138.98C380.07 137.59 380.01 136.85 382.93 136.92C385.28 136.98 389.16 137.77 389.39 140.33C389.7 143.74 384.05 160 382.13 164.77L380.71 169.42C389.69 163.1 398.61 143.94 401.43 140.45C402.57 139 403.1 138.32 403.88 138.32C406.22 138.32 411.16 141.04 411.32 142.83C411.64 146.32 408.71 151.99 405.38 160.44C405.38 160.44 403.4 165.57 402.05 169.28V169.27Z" fill="#0054A6"></path>
    <path d="M222.79 131.44C226.407 131.44 229.34 128.507 229.34 124.89C229.34 121.273 226.407 118.34 222.79 118.34C219.173 118.34 216.24 121.273 216.24 124.89C216.24 128.507 219.173 131.44 222.79 131.44Z" fill="#0054A6"></path>
    <path d="M466.52 153.03C466.28 155.09 465.98 157.57 465.53 160.29C466.45 160.54 467.26 160.62 467.86 160.62C469.95 160.62 470.21 159.55 470.41 159.55C470.91 159.55 471.02 159.63 471.06 159.96L471.08 160.12C471.77 164.91 468.24 167.71 464.46 167.71H463.67C460.03 177.7 450.73 182.07 442.09 182.07C433.45 182.07 425.56 177.7 424.63 170.1C423.78 163.17 429.71 155.66 440.14 155.66C441.53 155.66 442.93 155.74 444.34 155.91C446.89 153.19 450.01 149.47 452.61 145.59C457.23 138.74 464.6 134.86 468.38 134.86C470.86 134.86 472.84 135.6 472.98 136.76C473.21 138.66 467.55 145.92 466.53 153.02L466.52 153.03ZM441.01 164.5C434.45 164.5 431.51 168.05 431.91 171.27C432.22 173.83 434.7 176.22 439.17 176.22C443.64 176.22 449.06 173.41 451.21 165.9C447.54 165.16 444.18 164.5 441.01 164.5ZM454.28 150.47C453.6 151.38 451.35 154.1 449.08 156.66C450.41 156.99 451.73 157.24 453.07 157.57C453.69 154.52 454.19 152.12 454.6 150.64L454.28 150.47Z" fill="#0054A6"></path>
    <path d="M475.62 142.15V142.12C475.62 139.02 478.14 136.42 481.34 136.42C484.54 136.42 487.03 138.99 487.03 142.09V142.12C487.03 145.22 484.51 147.82 481.31 147.82C478.11 147.82 475.62 145.25 475.62 142.15ZM486.43 142.12V142.09C486.43 139.27 484.24 136.98 481.34 136.98C478.44 136.98 476.22 139.3 476.22 142.12V142.15C476.22 144.97 478.41 147.26 481.31 147.26C484.21 147.26 486.43 144.94 486.43 142.12ZM479.02 138.97H481.68C482.47 138.97 483.1 139.21 483.49 139.6C483.81 139.92 483.98 140.36 483.98 140.86V140.89C483.98 141.85 483.41 142.45 482.59 142.7L484.2 144.94H482.85L481.4 142.88H480.16V144.94H479.03V138.97H479.02ZM481.64 141.88C482.38 141.88 482.82 141.52 482.82 140.95V140.92C482.82 140.32 482.38 139.99 481.64 139.99H480.16V141.88H481.64Z" fill="#0054A6"></path>
  </symbol>
  <symbol fill="none" xmlns="http://www.w3.org/2000/svg" viewBox="0 0 228 228" id="WW_CircleW">
    <path d="M221.62 78.64C204.74 123.35 166.69 189.56 131.17 189.56C114.46 189.56 104.57 181.43 104.57 165.16C104.57 153.29 117.1 129.11 122.81 118.55H122.37C78.62 168.02 63.67 189.55 47.18 189.55C40.59 189.55 33.55 185.82 33.55 177.24C33.55 157.9 84.33 75.24 84.33 59.19C84.33 55.45 82.35 54.57 79.72 54.57C64.11 54.57 55.1 66.88 43.89 101.84C42.13 107.33 28.06 115.25 23.22 115.25C20.14 115.25 19.92 113.71 19.92 111.29C19.92 98.54 40.8 34.79 80.37 34.79C93.78 34.79 106.31 41.6 106.31 54.79C106.31 61.82 103.45 71.5 99.27 80.07L59.7 160.74H60.14C83 137.22 126.09 87.32 138.62 71.93C141.48 68.41 143.02 64.45 147.63 64.45C154.44 64.45 162.58 69.29 162.58 71.27C162.58 78.74 124.77 149.09 124.77 164.26C124.77 168 128.72 169.75 132.24 169.75C148.06 169.75 191.82 115.74 208.27 50.92C187.96 20.25 153.12 0 113.54 0C50.84 0 0 50.84 0 113.54C0 176.24 50.84 227.08 113.54 227.08C176.24 227.08 227.08 176.24 227.08 113.54C227.08 101.36 225.16 89.64 221.61 78.64H221.62Z" fill="#0054A6"></path>
    <path d="M132.26 169.78C128.74 169.78 124.79 168.03 124.79 164.29C124.79 149.12 162.6 78.77 162.6 71.3C162.6 69.32 154.47 64.48 147.65 64.48C143.03 64.48 141.49 68.44 138.64 71.96C126.11 87.35 83.02 137.25 60.16 160.77H59.72L99.29 80.1C103.47 71.52 106.33 61.85 106.33 54.82C106.33 41.63 93.8 34.82 80.39 34.82C40.82 34.82 19.94 98.57 19.94 111.32C19.94 113.74 20.16 115.28 23.24 115.28C28.08 115.28 42.15 107.37 43.91 101.87C55.12 66.92 64.13 54.6 79.74 54.6C82.38 54.6 84.35 55.48 84.35 59.22C84.35 75.27 33.57 157.93 33.57 177.27C33.57 185.85 40.61 189.58 47.2 189.58C63.69 189.58 78.64 168.04 122.39 118.58H122.83C117.12 129.13 104.59 153.31 104.59 165.19C104.59 181.46 114.48 189.59 131.19 189.59C166.71 189.59 204.77 123.37 221.64 78.67C218.45 68.78 213.94 59.48 208.31 50.98C191.87 115.79 148.1 169.81 132.28 169.81L132.26 169.78Z" fill="white"></path>
  </symbol>
  <symbol fill="none" xmlns="http://www.w3.org/2000/svg" viewBox="0 0 480 184" id="WW_Logo">
    <path d="M47.29 149.71H47.81C74.98 121.75 126.2 62.44 141.09 44.15C144.49 39.97 146.31 35.26 151.8 35.26C159.9 35.26 169.56 41.01 169.56 43.36C169.56 52.24 124.62 135.85 124.62 153.89C124.62 158.33 129.32 160.42 133.5 160.42C152.31 160.42 204.57 96.93 224.17 18.54C225.21 14.36 243.77 8.09 247.42 8.09C249.25 8.09 249.77 10.7 249.77 13.58C249.77 44.94 188.37 183.94 132.19 183.94C112.33 183.94 100.57 174.27 100.57 154.94C100.57 140.83 115.46 112.09 122.25 99.55H121.73C69.73 158.34 51.96 183.94 32.37 183.94C24.53 183.94 16.17 179.5 16.17 169.31C16.17 146.32 76.53 48.08 76.53 29C76.53 24.56 74.18 23.51 71.05 23.51C52.5 23.51 41.78 38.14 28.46 79.69C26.37 86.22 9.64998 95.63 3.89998 95.63C0.23998 95.63 -0.0200195 93.8 -0.0200195 90.93C-1.95317e-05 75.77 24.82 0 71.85 0C87.79 0 102.68 8.1 102.68 23.78C102.68 32.14 99.28 43.64 94.32 53.83L47.29 149.72V149.71Z" fill="#0054A6"></path>
    <path d="M254.28 91.72C249.39 91.72 245.56 86.8 244.87 81.97C243.4 71.63 255.62 50.27 260.35 48.49C260.73 48.4 261.7 48.32 262.87 48.32C265.31 48.32 268.8 48.74 269 50.18C269.02 50.35 268.96 50.6 268.8 50.86C267.23 54.25 255.72 76.46 256.55 82.31C256.73 83.58 257.39 84.09 258.17 84.09C264.23 84.09 273.2 68.07 274.08 68.07C275.16 68.07 275.53 70.02 275.7 71.21C275.92 72.74 264.44 91.72 254.27 91.72H254.28Z" fill="#0054A6"></path>
    <path d="M302.1 91.64C297.5 91.64 292.66 88.5 292.03 84.1C290.66 74.44 298.97 60.71 301.08 57.66L300.66 57.49C295.92 61.98 286.82 72.24 282.37 79.44C278.01 86.56 276.76 91.56 274.71 91.56C272.66 91.56 268.09 89.02 267.64 85.88C267.07 81.9 280.93 47.99 285.23 47.99C286.7 47.99 292.14 49.09 292.47 51.47C292.77 53.59 290.34 59.86 290.06 61.3L290.17 61.39C291.71 59.86 301.26 48.59 306.64 48.59C310.26 48.59 315.25 50.71 315.47 52.23C315.8 54.52 314.83 55.96 313.78 58.25C312.83 60.54 304.24 77.83 304.76 81.47C304.9 82.49 305.31 83.25 307.26 83.25C312.35 83.25 320.85 68.08 321.73 68.08C322.61 68.08 323.21 69.52 323.41 70.96C323.76 73.42 311.68 91.64 302.1 91.64Z" fill="#0054A6"></path>
    <path d="M356.43 81.72C356.55 82.57 357.12 83.16 358.1 83.16C364.36 83.16 372.49 68.16 373.37 68.16C374.35 68.16 374.95 69.6 375.18 71.21C375.41 72.82 363.73 91.13 355.12 91.13C348.86 91.13 344.87 87.15 343.56 84.09C342.46 85.96 337.53 91.89 331.27 91.89C325.89 91.89 320.07 88.08 318.99 80.53C317.22 68.07 331.44 48.41 347.48 48.41C353.06 48.41 354.95 53.5 355.16 54.26C357.22 50.19 367.67 23.44 369.62 23.44C373.53 23.44 376.73 27.34 377.12 30.14C377.59 33.45 355.43 74.78 356.42 81.73L356.43 81.72ZM346.26 53.5C337.95 53.5 329.93 71.38 331.09 79.52C331.43 81.89 332.61 83.33 334.67 83.33C340.24 83.33 351.31 61.46 351.01 59.34C350.39 55.02 348.22 53.49 346.27 53.49L346.26 53.5Z" fill="#0054A6"></path>
    <path d="M422.54 71.64C418.77 80.2 409.73 83.76 403.57 83.76H402.79C398.39 88.59 392.91 91.98 386.55 91.98C378.33 91.98 372.29 88 371.13 79.86C369.37 67.49 380.91 48.24 396.76 48.24C399.6 48.24 402.27 48.83 404.84 49.34C409.35 50.24 411.68 52.73 412.16 56.12C413.03 62.22 411.29 69.94 407.66 76.72C408.27 76.89 408.78 77.06 409.37 77.06C415.04 77.06 419.48 68.67 420.85 68.67C421.63 68.67 422.47 69.77 422.63 70.87C422.68 71.21 422.62 71.46 422.54 71.63V71.64ZM401.7 54.09C393.97 54.09 383.64 68.75 385.07 78.84C385.48 81.72 386.94 83.76 389.98 83.76C391.74 83.76 393.4 83.08 395.01 81.98C396.55 81.01 397.72 79.68 399.18 77.85C400.67 75.98 401.77 73.96 401.78 73.94C404.52 68.61 406.42 61.79 405.94 58.42C405.64 56.3 404.54 54.1 401.71 54.1L401.7 54.09Z" fill="#0054A6"></path>
    <path d="M243.85 161.39C240.08 169.95 232.47 173.51 226.31 173.51H225.53C221.13 178.34 215.65 181.73 209.29 181.73C201.07 181.73 195.03 177.75 193.87 169.61C192.11 157.23 203.65 137.99 219.5 137.99C222.34 137.99 224.91 138.6 227.58 139.09C232.1 139.93 234.42 142.48 234.9 145.87C235.77 151.97 234.03 159.68 230.4 166.47C231.01 166.64 231.53 166.81 232.11 166.81C237.78 166.81 240.8 158.42 242.16 158.42C242.94 158.42 243.78 159.52 243.94 160.62C243.99 160.96 243.93 161.21 243.85 161.38V161.39ZM224.43 143.85C216.7 143.85 206.37 158.51 207.81 168.6C208.22 171.48 209.68 173.52 212.71 173.52C214.47 173.52 216.13 172.84 217.74 171.74C220.74 169.89 222.9 166.88 224.36 164.47C227.12 159.13 229.15 151.57 228.67 148.18C228.37 146.06 227.27 143.86 224.43 143.86V143.85Z" fill="#0054A6"></path>
    <path d="M261.16 181.31C255 181.31 249.76 178.17 248.89 172.07C247.71 163.76 258.74 148.51 258.7 148.25C258.68 148.08 255.28 146.89 253.62 146.89C253.23 146.89 252.95 146.98 252.87 147.15C249.04 153.93 245.13 160.12 242.31 164.36C242.08 164.78 241.72 165.04 241.33 165.04C240.45 165.04 239.72 164.02 239.5 162.5C239.42 161.91 239.88 161.06 240.12 160.63C241.16 159.02 243.23 155.71 245.19 150.88C247.4 145.79 247.47 142.15 248.79 138.33C250.14 134.09 251.49 133.25 254.72 133.25C256.19 133.25 257.08 134.01 257.28 135.45C257.52 137.14 256.64 137.82 256.68 138.08C256.73 138.42 257.35 138.67 258.92 138.67C263.52 138.67 268.9 137.99 270.27 137.99C273.01 137.99 277.29 142.65 277.57 144.6C277.79 146.13 274.95 147.48 273.1 149.6C269.88 153.08 261.55 165.37 262.49 171.98C262.57 172.57 263.06 173.25 264.04 173.25C266.48 173.25 272.09 169.12 275.16 165.78C279.19 161.4 282.03 158.06 282.52 158.06C283.4 158.06 282.48 164.09 281.29 165.07C279.19 166.82 269.68 181.3 261.17 181.3L261.16 181.31Z" fill="#0054A6"></path>
    <path d="M291.57 165.72C291.05 168.26 290.79 170.55 291.08 172.59C291.31 174.2 293.26 175.56 295.32 175.56C304.61 175.56 314.03 157.93 315.11 157.93C316.19 157.93 316.65 159.8 316.78 160.73C317.2 163.7 304.56 181.41 291.95 181.41C286.18 181.41 279.75 176.07 279.18 172.09C277.25 158.53 299.44 113.29 318.32 113.29C322.14 113.29 325.45 115.24 325.64 116.6C326.13 120.07 307.28 157.85 291.58 165.73L291.57 165.72ZM318.14 120.31C316.67 120.31 301.53 141.55 294.69 156.73C304.19 149.27 318.68 122.09 318.47 120.57C318.45 120.4 318.24 120.32 318.14 120.32V120.31Z" fill="#0054A6"></path>
    <path d="M349.8 171.48C349.92 172.33 350.49 172.92 351.47 172.92C357.73 172.92 365.86 157.92 366.74 157.92C367.72 157.92 368.32 159.36 368.55 160.97C368.78 162.58 357.1 180.89 348.5 180.89C342.24 180.89 338.25 176.91 336.94 173.86C335.84 175.73 330.91 181.66 324.65 181.66C319.27 181.66 313.45 177.85 312.37 170.3C310.6 157.84 324.82 138.18 340.86 138.18C346.44 138.18 348.33 143.26 348.54 144.03C350.6 139.96 361.05 113.21 363 113.21C366.91 113.21 370.11 117.11 370.5 119.91C370.97 123.21 348.81 164.55 349.8 171.5V171.48ZM339.62 143.25C331.31 143.25 323.29 161.14 324.45 169.27C324.79 171.64 325.97 173.08 328.03 173.08C333.6 173.08 344.67 151.21 344.37 149.09C343.76 144.77 341.58 143.24 339.63 143.24L339.62 143.25Z" fill="#0054A6"></path>
    <path d="M449 80.71C447.53 84.76 450.25 84.93 452.95 82.52C456.95 78.95 459.35 75.03 462.25 69.79C466.21 62.65 467.59 55.16 468.27 53.01C468.58 52.03 468.89 50.9 468.89 50.9C468.89 50.9 469.17 49.8 470.22 49.24C471.62 48.49 474.85 47.86 477.34 47.51C481.09 46.98 479.84 48.87 479.39 51.83C478.48 57.83 475.15 65.52 472.41 70.9C470.93 73.8 469.03 77.44 466.3 81.09C464.9 82.96 463.48 84.38 461.48 86.56C458.79 89.49 455.54 91.58 452.55 92.1C450.78 92.41 449.29 92.34 448.19 92.19C446.3 91.93 445.39 91.49 445.39 91.49C442.24 90.09 439.7 87.9 439.84 85.22C440.06 80.97 440.66 77.55 444.01 67.99C436.36 81.34 425.79 91 425.41 91.23C425.11 91.53 424.32 91.88 423.74 91.88C421 91.88 416.35 88.05 416.18 86.17C415.95 83.62 419.7 71.01 422.16 62.49C424.02 55.87 425.39 52.45 426.36 50.42C427.02 49.03 426.96 48.29 429.88 48.35C432.23 48.41 436.11 49.2 436.35 51.76C436.66 55.17 431.01 71.44 429.09 76.21L427.67 80.87C436.66 74.55 445.58 55.38 448.4 51.89C449.54 50.44 450.07 49.76 450.85 49.76C453.2 49.76 458.14 52.49 458.3 54.27C458.62 57.76 455.69 63.44 452.36 71.88C452.36 71.88 450.38 77.01 449.03 80.73L449 80.71Z" fill="#0054A6"></path>
    <path d="M269.65 42.86C273.267 42.86 276.2 39.9275 276.2 36.31C276.2 32.6925 273.267 29.76 269.65 29.76C266.032 29.76 263.1 32.6925 263.1 36.31C263.1 39.9275 266.032 42.86 269.65 42.86Z" fill="#0054A6"></path>
    <path d="M373.06 121.63V121.6C373.06 118.5 375.58 115.9 378.78 115.9C381.98 115.9 384.47 118.47 384.47 121.57V121.6C384.47 124.7 381.95 127.3 378.75 127.3C375.55 127.3 373.06 124.73 373.06 121.63ZM383.87 121.6V121.57C383.87 118.75 381.68 116.46 378.78 116.46C375.88 116.46 373.66 118.78 373.66 121.6V121.63C373.66 124.45 375.85 126.74 378.75 126.74C381.65 126.74 383.87 124.42 383.87 121.6ZM376.46 118.45H379.12C379.91 118.45 380.54 118.69 380.93 119.08C381.25 119.4 381.42 119.84 381.42 120.34V120.37C381.42 121.33 380.85 121.93 380.03 122.18L381.64 124.42H380.29L378.84 122.36H377.6V124.42H376.47V118.45H376.46ZM379.08 121.36C379.82 121.36 380.26 121 380.26 120.43V120.4C380.26 119.8 379.82 119.47 379.08 119.47H377.6V121.36H379.08Z" fill="#0054A6"></path>
  </symbol>
  <symbol fill="none" xmlns="http://www.w3.org/2000/svg" viewBox="0 0 348 99" id="WW_Roofing_Logo">
    <path d="M0.15 1.08H24.85C33.81 1.08 39.51 3.32 43.05 6.86C46.08 9.89 47.67 13.65 47.67 18.85V18.99C47.67 26.36 43.84 31.49 37.7 34.45L49.47 51.64H30.18L20.64 37.19H17.03V51.64H0.15V1.08ZM24.35 25.14C28.39 25.14 30.85 23.33 30.85 20.23V20.09C30.85 16.84 28.32 15.25 24.42 15.25H17.05V25.15H24.35V25.14Z" fill="#214294"></path>
    <path d="M48.84 26.51V26.37C48.84 11.71 60.9 0 76.51 0C92.12 0 104.03 11.56 104.03 26.22V26.36C104.03 41.02 91.97 52.73 76.36 52.73C60.75 52.73 48.84 41.17 48.84 26.51ZM86.98 26.51V26.37C86.98 20.37 82.86 14.96 76.36 14.96C69.86 14.96 65.89 20.31 65.89 26.23V26.37C65.89 32.37 70.01 37.78 76.51 37.78C83.01 37.78 86.98 32.43 86.98 26.51Z" fill="#214294"></path>
    <path d="M105.69 26.51V26.37C105.69 11.71 117.75 0 133.36 0C148.97 0 160.88 11.56 160.88 26.22V26.36C160.88 41.02 148.82 52.73 133.21 52.73C117.6 52.73 105.69 41.17 105.69 26.51ZM143.83 26.51V26.37C143.83 20.37 139.71 14.96 133.21 14.96C126.71 14.96 122.74 20.31 122.74 26.23V26.37C122.74 32.37 126.86 37.78 133.36 37.78C139.86 37.78 143.83 32.43 143.83 26.51Z" fill="#214294"></path>
    <path d="M163.7 1.08H206.03V15.53H180.6V21.96H204.22V35.11H180.6V51.65H163.7V1.08Z" fill="#214294"></path>
    <path d="M0 60.27H23.61V68.73H9.09V71.86H22.62V79.3H9.09V82.65H23.8V91.11H0V60.27Z" fill="#214294"></path>
    <path d="M33.06 75.42L24.08 60.27H34.6L38.59 67.63L42.62 60.27H52.94L43.96 75.29L53.33 91.1H42.81L38.42 83.08L33.99 91.1H23.67L33.04 75.42H33.06Z" fill="#214294"></path>
    <path d="M53.9 60.27H66.36C73.72 60.27 78.74 63.93 78.74 71.24V71.33C78.74 78.77 73.64 82.74 66.16 82.74H63.15V91.11H53.9V60.27ZM65.65 75.38C68.02 75.38 69.61 74.19 69.61 71.99V71.9C69.61 69.65 68.15 68.51 65.69 68.51H63.16V75.38H65.65Z" fill="#214294"></path>
    <path d="M103.65 60.27V68.73H89.13V71.86H102.66V79.3H89.13V82.65H103.84V91.11H80.03V60.27H103.65Z" fill="#214294"></path>
    <path d="M105.67 60.27H119.2C124.1 60.27 127.23 61.64 129.17 63.79C130.83 65.64 131.7 67.93 131.7 71.1V71.19C131.7 75.68 129.6 78.81 126.24 80.62L132.69 91.1H122.13L116.91 82.29H114.93V91.1H105.68V60.26L105.67 60.27ZM118.92 74.94C121.13 74.94 122.48 73.84 122.48 71.94V71.85C122.48 69.87 121.1 68.9 118.96 68.9H114.93V74.94H118.92Z" fill="#214294"></path>
    <path d="M140.35 68.99H132.2V60.27H157.75V68.99H149.6V91.1H140.35V68.99Z" fill="#214294"></path>
    <path d="M156.29 86.48L161.23 79.92C164.24 82.48 167.68 83.53 170.92 83.53C172.58 83.53 173.29 83.05 173.29 82.21V82.12C173.29 81.24 172.42 80.75 169.45 80.09C163.24 78.68 157.78 76.7 157.78 70.18V70.09C157.78 64.23 161.89 59.69 169.53 59.69C174.87 59.69 178.82 61.1 182.03 63.92L177.52 70.88C174.91 68.77 171.79 67.84 169.21 67.84C167.83 67.84 167.19 68.37 167.19 69.12V69.21C167.19 70.05 167.94 70.58 170.87 71.19C177.95 72.64 182.7 74.93 182.7 81.15V81.24C182.7 87.72 177.91 91.68 170.48 91.68C164.86 91.68 159.8 89.92 156.28 86.48H156.29Z" fill="#214294"></path>
    <path d="M192.11 83.22V84.44H190.3V73.6H192.11V77.91C192.69 77.09 193.51 76.44 194.78 76.44C196.62 76.44 198.42 77.9 198.42 80.51V80.54C198.42 83.14 196.64 84.61 194.78 84.61C193.47 84.61 192.66 83.96 192.11 83.23V83.22ZM196.59 80.53V80.5C196.59 78.99 195.55 77.99 194.35 77.99C193.15 77.99 192.06 79 192.06 80.5V80.53C192.06 82.03 193.13 83.04 194.35 83.04C195.57 83.04 196.59 82.07 196.59 80.53Z" fill="#214294"></path>
    <path d="M205.34 76.6H207.21L204.09 84.65C203.47 86.27 202.77 86.86 201.51 86.86C200.77 86.86 200.2 86.68 199.65 86.37L200.26 85.05C200.59 85.23 200.94 85.35 201.31 85.35C201.81 85.35 202.13 85.13 202.42 84.46L199.15 76.61H201.08L203.28 82.43L205.33 76.61L205.34 76.6Z" fill="#214294"></path>
    <path d="M311.14 52.73C311.43 52.73 311.71 52.72 312 52.71C313.24 50.08 313.95 49.4 315.34 49.4C317.08 49.4 318.55 50.51 319.34 51.85C324.93 50.63 329.7 48.2 333.47 45.14V21.74H308.98V32.58H317.65V37.64C316.35 38.36 314.76 38.8 311.87 38.8C304.79 38.8 299.81 33.89 299.81 26.74V26.6C299.81 19.74 304.58 14.68 311.15 14.68C315.34 14.68 319.02 16.27 322.35 19.09L331.81 7.68C326.32 2.91 319.31 0.02 310.64 0.02C294.68 0.02 282.76 11.29 282.76 26.39V26.53C282.76 42.2 295.4 52.75 311.15 52.75L311.14 52.73Z" fill="#214294"></path>
    <path d="M246.12 51.65V28.32L264.9 51.65H270.4C270.57 51.05 270.73 50.44 270.88 49.82C271.68 46.62 278.92 45 279.92 44.97V1.08H263.16V23.4L245.18 1.08H229.36V42.63C235.8 42.71 240.31 46.38 240.46 51.65H246.12Z" fill="#214294"></path>
    <path d="M225.25 43.14V1.08H208.35V51.64H213.92C216.88 47.66 220.65 44.36 225.25 43.13V43.14Z" fill="#214294"></path>
    <path d="M222.03 88.38H222.18C230.05 80.29 244.87 63.12 249.18 57.83C250.16 56.62 250.69 55.26 252.28 55.26C254.62 55.26 257.42 56.92 257.42 57.6C257.42 60.17 244.41 84.37 244.41 89.59C244.41 90.88 245.77 91.48 246.98 91.48C252.43 91.48 267.55 73.1 273.23 50.41C273.53 49.2 278.9 47.38 279.96 47.38C280.49 47.38 280.64 48.14 280.64 48.97C280.64 58.05 262.87 98.28 246.6 98.28C240.85 98.28 237.45 95.48 237.45 89.89C237.45 85.8 241.76 77.49 243.73 73.85H243.58C228.53 90.87 223.39 98.28 217.71 98.28C215.44 98.28 213.02 96.99 213.02 94.04C213.02 87.38 230.49 58.95 230.49 53.43C230.49 52.14 229.81 51.84 228.9 51.84C223.53 51.84 220.43 56.08 216.57 68.1C215.97 69.99 211.12 72.71 209.46 72.71C208.4 72.71 208.33 72.18 208.33 71.35C208.33 66.96 215.51 45.03 229.13 45.03C233.74 45.03 238.06 47.37 238.06 51.91C238.06 54.33 237.08 57.66 235.64 60.61L222.03 88.37V88.38Z" fill="#214294"></path>
    <path d="M281.95 71.59C280.53 71.59 279.43 70.17 279.23 68.77C278.8 65.78 282.34 59.59 283.71 59.08C283.82 59.06 284.1 59.03 284.44 59.03C285.15 59.03 286.16 59.15 286.22 59.57C286.22 59.62 286.21 59.69 286.16 59.77C285.71 60.75 282.37 67.18 282.61 68.87C282.66 69.24 282.85 69.39 283.08 69.39C284.83 69.39 287.43 64.75 287.69 64.75C288 64.75 288.11 65.31 288.16 65.66C288.22 66.1 284.9 71.6 281.96 71.6L281.95 71.59Z" fill="#214294"></path>
    <path d="M295.79 71.57C294.46 71.57 293.06 70.66 292.87 69.39C292.47 66.59 294.88 62.62 295.49 61.74L295.37 61.69C294 62.99 291.36 65.96 290.07 68.04C288.81 70.1 288.45 71.55 287.85 71.55C287.25 71.55 285.93 70.81 285.8 69.91C285.64 68.76 289.65 58.94 290.89 58.94C291.32 58.94 292.89 59.26 292.99 59.95C293.08 60.56 292.37 62.38 292.29 62.8L292.32 62.82C292.77 62.38 295.53 59.12 297.09 59.12C298.14 59.12 299.58 59.73 299.65 60.18C299.74 60.84 299.46 61.26 299.16 61.92C298.89 62.58 296.4 67.59 296.55 68.64C296.59 68.93 296.71 69.16 297.27 69.16C298.74 69.16 301.2 64.77 301.46 64.77C301.72 64.77 301.89 65.19 301.95 65.6C302.05 66.31 298.55 71.59 295.78 71.59L295.79 71.57Z" fill="#214294"></path>
    <path d="M311.52 68.69C311.55 68.94 311.72 69.11 312 69.11C313.81 69.11 316.17 64.77 316.42 64.77C316.7 64.77 316.88 65.19 316.94 65.65C317 66.11 313.63 71.42 311.13 71.42C309.32 71.42 308.16 70.27 307.78 69.38C307.46 69.92 306.03 71.64 304.22 71.64C302.66 71.64 300.98 70.54 300.67 68.35C300.16 64.74 304.27 59.05 308.92 59.05C310.53 59.05 311.08 60.52 311.14 60.74C311.74 59.56 314.76 51.82 315.33 51.82C316.46 51.82 317.39 52.95 317.5 53.76C317.64 54.72 311.22 66.68 311.51 68.69H311.52ZM308.57 60.52C306.16 60.52 303.84 65.7 304.18 68.05C304.28 68.74 304.62 69.15 305.22 69.15C306.83 69.15 310.04 62.82 309.95 62.21C309.77 60.96 309.14 60.52 308.58 60.52H308.57Z" fill="#214294"></path>
    <path d="M330.65 65.77C329.56 68.25 326.94 69.28 325.16 69.28H324.93C323.66 70.68 322.07 71.66 320.23 71.66C317.85 71.66 316.1 70.51 315.77 68.15C315.26 64.57 318.6 59 323.19 59C324.01 59 324.78 59.17 325.53 59.32C326.83 59.58 327.51 60.3 327.65 61.28C327.9 63.05 327.4 65.28 326.35 67.24C326.53 67.29 326.68 67.34 326.84 67.34C328.48 67.34 329.77 64.91 330.16 64.91C330.39 64.91 330.63 65.23 330.68 65.55C330.69 65.65 330.68 65.72 330.65 65.77ZM324.62 60.7C322.38 60.7 319.39 64.94 319.81 67.86C319.93 68.69 320.35 69.28 321.23 69.28C321.74 69.28 322.22 69.08 322.69 68.76C323.14 68.48 323.48 68.09 323.9 67.56C324.33 67.02 324.65 66.43 324.65 66.43C325.44 64.89 325.99 62.91 325.85 61.94C325.76 61.33 325.45 60.69 324.62 60.69V60.7Z" fill="#214294"></path>
    <path d="M278.93 91.76C277.84 94.24 275.64 95.27 273.85 95.27H273.62C272.35 96.67 270.76 97.65 268.92 97.65C266.54 97.65 264.79 96.5 264.46 94.14C263.95 90.56 267.29 84.99 271.88 84.99C272.7 84.99 273.45 85.17 274.22 85.31C275.53 85.55 276.2 86.29 276.34 87.27C276.59 89.04 276.09 91.27 275.04 93.23C275.22 93.28 275.37 93.33 275.54 93.33C277.18 93.33 278.05 90.9 278.45 90.9C278.68 90.9 278.92 91.22 278.97 91.54C278.98 91.64 278.97 91.71 278.94 91.76H278.93ZM273.31 86.68C271.07 86.68 268.08 90.92 268.5 93.84C268.62 94.67 269.04 95.26 269.92 95.26C270.43 95.26 270.91 95.06 271.38 94.74C272.25 94.21 272.87 93.33 273.3 92.64C274.1 91.09 274.69 88.9 274.55 87.92C274.46 87.31 274.15 86.67 273.32 86.67L273.31 86.68Z" fill="#214294"></path>
    <path d="M283.94 97.52C282.16 97.52 280.64 96.61 280.39 94.85C280.05 92.45 283.24 88.03 283.23 87.95C283.23 87.9 282.24 87.56 281.76 87.56C281.65 87.56 281.56 87.58 281.54 87.63C280.43 89.59 279.3 91.38 278.48 92.61C278.41 92.73 278.31 92.81 278.2 92.81C277.95 92.81 277.73 92.52 277.67 92.07C277.65 91.9 277.78 91.65 277.85 91.53C278.15 91.06 278.75 90.11 279.32 88.71C279.96 87.24 279.98 86.18 280.36 85.08C280.75 83.85 281.14 83.61 282.08 83.61C282.5 83.61 282.76 83.83 282.82 84.25C282.89 84.74 282.63 84.94 282.65 85.01C282.66 85.11 282.84 85.18 283.3 85.18C284.63 85.18 286.19 84.98 286.58 84.98C287.37 84.98 288.61 86.33 288.69 86.89C288.75 87.33 287.93 87.72 287.4 88.34C286.47 89.35 284.06 92.9 284.33 94.82C284.35 94.99 284.5 95.19 284.78 95.19C285.49 95.19 287.11 93.99 288 93.03C289.17 91.76 289.99 90.8 290.13 90.8C290.38 90.8 290.12 92.54 289.77 92.83C289.16 93.34 286.41 97.53 283.95 97.53L283.94 97.52Z" fill="#214294"></path>
    <path d="M292.74 93.01C292.59 93.75 292.51 94.41 292.6 95C292.67 95.47 293.23 95.86 293.83 95.86C296.52 95.86 299.25 90.76 299.56 90.76C299.87 90.76 300 91.3 300.04 91.57C300.16 92.43 296.5 97.56 292.85 97.56C291.18 97.56 289.32 96.01 289.15 94.86C288.59 90.93 295.02 77.84 300.48 77.84C301.58 77.84 302.54 78.4 302.6 78.8C302.74 79.81 297.29 90.74 292.74 93.02V93.01ZM300.43 79.87C300.01 79.87 295.62 86.02 293.64 90.41C296.39 88.25 300.59 80.38 300.52 79.94C300.52 79.89 300.45 79.87 300.42 79.87H300.43Z" fill="#214294"></path>
    <path d="M309.6 94.68C309.63 94.93 309.8 95.1 310.08 95.1C311.89 95.1 314.25 90.76 314.5 90.76C314.78 90.76 314.96 91.18 315.02 91.64C315.08 92.1 311.71 97.41 309.21 97.41C307.4 97.41 306.24 96.26 305.86 95.37C305.54 95.91 304.11 97.63 302.3 97.63C300.74 97.63 299.06 96.53 298.75 94.34C298.24 90.73 302.35 85.04 307 85.04C308.61 85.04 309.16 86.51 309.22 86.73C309.82 85.55 312.84 77.81 313.41 77.81C314.54 77.81 315.47 78.94 315.58 79.75C315.72 80.71 309.3 92.67 309.59 94.68H309.6ZM306.65 86.51C304.24 86.51 301.92 91.69 302.26 94.04C302.36 94.73 302.7 95.14 303.3 95.14C304.91 95.14 308.12 88.81 308.03 88.2C307.85 86.95 307.22 86.51 306.66 86.51H306.65Z" fill="#214294"></path>
    <path d="M338.31 68.4C337.88 69.57 338.67 69.62 339.45 68.92C340.61 67.89 341.3 66.75 342.14 65.23C343.29 63.16 343.69 60.99 343.88 60.37C343.97 60.09 344.06 59.76 344.06 59.76C344.06 59.76 344.14 59.44 344.44 59.28C344.85 59.06 345.78 58.88 346.5 58.78C347.58 58.63 347.22 59.17 347.09 60.03C346.83 61.77 345.86 63.99 345.07 65.55C344.64 66.39 344.09 67.44 343.3 68.5C342.9 69.04 342.48 69.45 341.9 70.08C341.12 70.93 340.18 71.53 339.31 71.68C338.8 71.77 338.37 71.75 338.05 71.71C337.5 71.63 337.24 71.51 337.24 71.51C336.33 71.1 335.59 70.47 335.63 69.7C335.69 68.47 335.87 67.48 336.84 64.71C334.62 68.58 331.57 71.37 331.45 71.44C331.36 71.53 331.13 71.63 330.97 71.63C330.18 71.63 328.83 70.52 328.78 69.98C328.71 69.24 329.8 65.59 330.51 63.13C331.05 61.21 331.44 60.22 331.73 59.63C331.92 59.23 331.9 59.01 332.75 59.03C333.43 59.05 334.55 59.28 334.62 60.02C334.71 61.01 333.07 65.72 332.52 67.1L332.11 68.45C334.71 66.62 337.3 61.07 338.11 60.06C338.44 59.64 338.59 59.44 338.82 59.44C339.5 59.44 340.93 60.23 340.98 60.75C341.07 61.76 340.22 63.4 339.26 65.85C339.26 65.85 338.69 67.33 338.3 68.41L338.31 68.4Z" fill="#214294"></path>
    <path d="M286.4 57.45C287.449 57.45 288.3 56.5993 288.3 55.55C288.3 54.5007 287.449 53.65 286.4 53.65C285.351 53.65 284.5 54.5007 284.5 55.55C284.5 56.5993 285.351 57.45 286.4 57.45Z" fill="#214294"></path>
    <path d="M316.46 80.22C316.46 79.31 317.19 78.56 318.12 78.56C319.05 78.56 319.77 79.3 319.77 80.2C319.77 81.11 319.04 81.86 318.11 81.86C317.18 81.86 316.46 81.12 316.46 80.22ZM319.59 80.21C319.59 79.38 318.95 78.72 318.11 78.72C317.27 78.72 316.63 79.39 316.63 80.21C316.63 81.04 317.26 81.7 318.11 81.7C318.96 81.7 319.59 81.03 319.59 80.21ZM317.44 79.3H318.21C318.44 79.3 318.62 79.37 318.74 79.48C318.83 79.57 318.88 79.7 318.88 79.85C318.88 80.14 318.72 80.31 318.48 80.38L318.95 81.03H318.56L318.14 80.43H317.78V81.03H317.45V79.3H317.44ZM318.2 80.14C318.41 80.14 318.54 80.03 318.54 79.87C318.54 79.69 318.41 79.59 318.2 79.59H317.77V80.14H318.2Z" fill="#214294"></path>
  </symbol>
</svg>