<svg width="512" height="184" viewBox="0 0 512 184" fill="none" xmlns="http://www.w3.org/2000/svg">
<path d="M47.27 149.64H47.79C74.95 121.7 126.14 62.41 141.03 44.13C144.42 39.95 146.25 35.25 151.74 35.25C159.83 35.25 169.5 40.99 169.5 43.35C169.5 52.23 124.58 135.8 124.58 153.83C124.58 158.27 129.28 160.35 133.46 160.35C152.27 160.35 204.5 96.89 224.09 18.54C225.13 14.36 243.68 8.09 247.33 8.09C249.16 8.09 249.68 10.7 249.68 13.58C249.68 44.92 188.31 183.86 132.16 183.86C112.31 183.86 100.56 174.2 100.56 154.87C100.56 140.76 115.45 112.04 122.23 99.5H121.71C69.74 158.27 51.98 183.86 32.39 183.86C24.56 183.86 16.2 179.42 16.2 169.23C16.2 146.25 76.53 48.05 76.53 28.99C76.53 24.55 74.18 23.51 71.05 23.51C52.51 23.51 41.8 38.14 28.48 79.66C26.39 86.19 9.68001 95.59 3.93001 95.59C0.280013 95.59 0.0100128 93.76 0.0100128 90.89C1.27876e-05 75.74 24.81 0 71.82 0C87.75 0 102.64 8.09 102.64 23.77C102.64 32.13 99.24 43.62 94.28 53.8L47.27 149.64Z" fill="#0054A6"/>
<path d="M291.87 79C288.1 87.56 280.49 91.11 274.33 91.11H273.55C269.15 95.94 263.67 99.33 257.32 99.33C249.11 99.33 243.07 95.35 241.91 87.22C240.15 74.85 251.68 55.62 267.52 55.62C270.35 55.62 272.93 56.23 275.59 56.72C280.11 57.56 282.43 60.11 282.91 63.5C283.78 69.6 282.04 77.31 278.41 84.09C279.02 84.26 279.53 84.43 280.12 84.43C285.79 84.43 288.8 76.04 290.17 76.04C290.95 76.04 291.79 77.14 291.95 78.24C292 78.58 291.94 78.83 291.86 79H291.87ZM272.46 61.47C264.74 61.47 254.41 76.13 255.84 86.21C256.25 89.09 257.71 91.12 260.74 91.12C262.5 91.12 264.16 90.44 265.77 89.34C268.76 87.49 270.93 84.48 272.39 82.08C275.15 76.74 277.18 69.18 276.7 65.79C276.4 63.67 275.3 61.47 272.47 61.47H272.46Z" fill="#0054A6"/>
<path d="M309.17 98.91C303.01 98.91 297.78 95.78 296.91 89.68C295.73 81.38 306.76 66.13 306.72 65.87C306.7 65.7 303.3 64.51 301.64 64.51C301.25 64.51 300.97 64.6 300.89 64.77C297.07 71.55 293.15 77.73 290.34 81.97C290.11 82.39 289.75 82.65 289.36 82.65C288.48 82.65 287.75 81.64 287.53 80.11C287.45 79.52 287.91 78.67 288.15 78.25C289.19 76.64 291.26 73.34 293.22 68.51C295.43 63.43 295.5 59.78 296.81 55.97C298.16 51.74 299.51 50.89 302.73 50.89C304.2 50.89 305.09 51.65 305.29 53.09C305.53 54.78 304.65 55.46 304.69 55.72C304.74 56.06 305.36 56.31 306.93 56.31C311.52 56.31 316.9 55.63 318.27 55.63C321.01 55.63 325.29 60.29 325.56 62.24C325.78 63.77 322.94 65.12 321.09 67.24C317.87 70.72 309.55 83 310.49 89.61C310.57 90.2 311.06 90.88 312.04 90.88C314.48 90.88 320.08 86.75 323.16 83.41C327.19 79.03 330.03 75.7 330.52 75.7C331.4 75.7 330.48 81.72 329.29 82.71C327.19 84.46 317.68 98.93 309.18 98.93L309.17 98.91Z" fill="#0054A6"/>
<path d="M339.57 83.32C339.05 85.86 338.79 88.15 339.08 90.18C339.31 91.79 341.26 93.14 343.32 93.14C352.61 93.14 362.03 75.52 363.1 75.52C364.17 75.52 364.63 77.38 364.77 78.32C365.19 81.28 352.56 98.99 339.95 98.99C334.18 98.99 327.75 93.65 327.19 89.67C325.26 76.11 347.44 30.9 366.31 30.9C370.12 30.9 373.43 32.85 373.63 34.2C374.12 37.67 355.28 75.43 339.59 83.31L339.57 83.32ZM366.13 37.94C364.66 37.94 349.53 59.17 342.69 74.34C352.19 66.88 366.67 39.72 366.46 38.19C366.44 38.02 366.23 37.94 366.13 37.94Z" fill="#0054A6"/>
<path d="M397.77 89.08C397.89 89.93 398.46 90.52 399.44 90.52C405.7 90.52 413.83 75.52 414.71 75.52C415.69 75.52 416.29 76.96 416.51 78.57C416.74 80.18 405.07 98.48 396.46 98.48C390.2 98.48 386.22 94.5 384.9 91.45C383.8 93.31 378.87 99.24 372.62 99.24C367.24 99.24 361.42 95.43 360.35 87.89C358.58 75.43 372.79 55.78 388.82 55.78C394.39 55.78 396.29 60.86 396.5 61.63C398.56 57.56 409 30.82 410.96 30.82C414.87 30.82 418.06 34.72 418.46 37.51C418.93 40.81 396.78 82.13 397.77 89.08ZM387.6 60.87C379.29 60.87 371.28 78.75 372.43 86.88C372.77 89.25 373.95 90.69 376 90.69C381.57 90.69 392.64 68.83 392.33 66.71C391.72 62.39 389.54 60.86 387.59 60.86L387.6 60.87Z" fill="#0054A6"/>
<path d="M510.82 62.51C510.26 62.51 507.92 61.72 503.98 61.72C502.3 61.72 501.39 61.98 497.87 62.24C498.08 70.79 493.4 86.06 486.59 98.45C478.17 113.72 466.32 126.28 461.92 126.28C459.95 126.28 458.2 123.4 457.92 121.13C457.33 116.33 468.55 96.35 477.56 77.51C480.18 72.19 482.58 67.3 484.68 63.03C482.78 62.77 481.18 61.2 480.59 58.67C480.24 57.36 480.24 55.79 480.35 55.18C480.38 54.66 480.54 54.48 481.2 54.48C481.67 54.48 482.76 55 483.89 55C485.2 55 487.8 54.04 489.02 54.04C491.96 48.28 493.86 44.62 494.56 43.48C495.99 41.39 499.3 36.33 501.92 36.33C503.7 36.33 506.2 37.64 506.37 39.04C506.51 40.17 503.55 48.11 500.26 53.35H500.82C505.77 53.26 508.69 55.71 509.39 57.54C510.22 59.72 511.23 61.12 511.33 61.9C511.37 62.25 511.12 62.51 510.84 62.51H510.82ZM490.79 72.46C490.6 72.46 485.7 82.06 481.92 90.17C478.15 98.37 472.69 109.54 472.71 109.71C472.73 109.88 472.84 109.97 473.02 109.97C473.11 109.97 479.66 101.51 484.57 91.21C489.13 81.87 491.23 72.98 491.19 72.71C491.17 72.54 490.97 72.45 490.78 72.45L490.79 72.46Z" fill="#0054A6"/>
<path d="M480.72 79.27C476.95 87.83 467.92 91.38 461.76 91.38H460.98C456.58 96.21 451.1 99.6 444.75 99.6C436.54 99.6 430.5 95.62 429.34 87.48C427.58 75.11 439.12 55.88 454.95 55.88C457.79 55.88 460.46 56.47 463.03 56.98C467.53 57.88 469.87 60.37 470.35 63.76C471.22 69.86 469.48 77.57 465.85 84.35C466.46 84.52 466.97 84.69 467.56 84.69C473.23 84.69 477.67 76.3 479.04 76.3C479.82 76.3 480.66 77.4 480.82 78.5C480.87 78.84 480.81 79.09 480.73 79.26L480.72 79.27ZM459.89 61.73C452.17 61.73 441.83 76.39 443.27 86.47C443.68 89.35 445.14 91.38 448.17 91.38C449.93 91.38 451.59 90.7 453.2 89.6C454.74 88.64 455.91 87.3 457.37 85.47C458.83 83.64 459.95 81.58 459.97 81.56C462.71 76.23 464.61 69.42 464.13 66.05C463.83 63.93 462.73 61.73 459.9 61.73H459.89Z" fill="#0054A6"/>
<path d="M207.43 180.27C202.54 180.27 198.71 175.36 198.03 170.53C196.56 160.19 208.77 138.84 213.5 137.06C213.88 136.97 214.85 136.89 216.02 136.89C218.46 136.89 221.95 137.31 222.15 138.75C222.17 138.92 222.11 139.17 221.95 139.43C220.38 142.82 208.87 165.02 209.7 170.86C209.88 172.13 210.54 172.64 211.32 172.64C217.38 172.64 226.34 156.63 227.22 156.63C228.3 156.63 228.67 158.58 228.84 159.77C229.06 161.29 217.58 180.27 207.42 180.27H207.43Z" fill="#0054A6"/>
<path d="M255.22 180.19C250.63 180.19 245.78 177.06 245.15 172.65C243.78 162.99 252.09 149.27 254.19 146.22L253.77 146.05C249.03 150.54 239.93 160.79 235.48 167.99C231.12 175.11 229.87 180.11 227.82 180.11C225.77 180.11 221.2 177.57 220.76 174.43C220.19 170.45 234.04 136.56 238.34 136.56C239.81 136.56 245.24 137.66 245.58 140.03C245.88 142.15 243.45 148.42 243.17 149.86L243.28 149.95C244.82 148.43 254.36 137.16 259.74 137.16C263.36 137.16 268.35 139.28 268.57 140.8C268.9 143.09 267.93 144.53 266.88 146.81C265.93 149.1 257.35 166.38 257.86 170.02C258 171.04 258.41 171.8 260.36 171.8C265.44 171.8 273.94 156.63 274.82 156.63C275.7 156.63 276.3 158.07 276.5 159.51C276.85 161.97 264.78 180.18 255.2 180.18L255.22 180.19Z" fill="#0054A6"/>
<path d="M309.53 170.28C309.65 171.13 310.22 171.72 311.2 171.72C317.46 171.72 325.59 156.72 326.47 156.72C327.45 156.72 328.05 158.16 328.28 159.77C328.51 161.38 316.84 179.68 308.23 179.68C301.97 179.68 297.99 175.7 296.67 172.65C295.57 174.51 290.64 180.45 284.39 180.45C279.01 180.45 273.19 176.64 272.12 169.1C270.35 156.65 284.56 136.99 300.59 136.99C306.16 136.99 308.06 142.07 308.27 142.84C310.33 138.77 320.77 112.03 322.73 112.03C326.64 112.03 329.83 115.93 330.23 118.72C330.7 122.02 308.55 163.34 309.54 170.29L309.53 170.28ZM299.36 142.06C291.05 142.06 283.04 159.94 284.19 168.07C284.53 170.44 285.71 171.88 287.76 171.88C293.33 171.88 304.4 150.02 304.09 147.9C303.48 143.58 301.3 142.05 299.35 142.05L299.36 142.06Z" fill="#0054A6"/>
<path d="M375.61 160.2C371.84 168.76 362.81 172.31 356.65 172.31H355.87C351.47 177.14 345.99 180.53 339.64 180.53C331.43 180.53 325.39 176.55 324.23 168.41C322.47 156.04 334.01 136.81 349.84 136.81C352.68 136.81 355.35 137.4 357.92 137.91C362.42 138.81 364.76 141.3 365.24 144.69C366.11 150.79 364.37 158.5 360.74 165.28C361.35 165.45 361.86 165.62 362.45 165.62C368.12 165.62 372.56 157.23 373.93 157.23C374.71 157.23 375.55 158.33 375.71 159.43C375.76 159.77 375.7 160.02 375.62 160.19L375.61 160.2ZM354.78 142.66C347.06 142.66 336.72 157.32 338.16 167.4C338.57 170.28 340.03 172.31 343.06 172.31C344.82 172.31 346.48 171.63 348.09 170.53C349.63 169.57 350.8 168.23 352.26 166.4C353.74 164.53 354.84 162.51 354.86 162.49C357.6 157.16 359.5 150.35 359.02 146.98C358.72 144.86 357.62 142.66 354.79 142.66H354.78Z" fill="#0054A6"/>
<path d="M402.05 169.27C400.58 173.32 403.3 173.49 406 171.08C410 167.51 412.39 163.59 415.3 158.35C419.25 151.21 420.64 143.73 421.32 141.58C421.63 140.6 421.94 139.47 421.94 139.47C421.94 139.47 422.22 138.37 423.27 137.81C424.67 137.06 427.9 136.43 430.39 136.08C434.13 135.55 432.89 137.44 432.44 140.39C431.53 146.39 428.2 154.07 425.46 159.45C423.98 162.35 422.08 165.99 419.35 169.64C417.95 171.5 416.53 172.93 414.53 175.11C411.84 178.04 408.59 180.13 405.6 180.65C403.83 180.96 402.34 180.89 401.24 180.74C399.35 180.48 398.44 180.04 398.44 180.04C395.29 178.64 392.75 176.45 392.89 173.77C393.11 169.52 393.71 166.1 397.06 156.54C389.41 169.89 378.85 179.54 378.46 179.77C378.16 180.07 377.37 180.42 376.79 180.42C374.05 180.42 369.41 176.59 369.24 174.72C369.01 172.17 372.76 159.57 375.21 151.05C377.07 144.43 378.44 141.01 379.41 138.98C380.07 137.59 380.01 136.85 382.93 136.92C385.28 136.98 389.16 137.77 389.39 140.33C389.7 143.74 384.05 160 382.13 164.77L380.71 169.42C389.69 163.1 398.61 143.94 401.43 140.45C402.57 139 403.1 138.32 403.88 138.32C406.22 138.32 411.16 141.04 411.32 142.83C411.64 146.32 408.71 151.99 405.38 160.44C405.38 160.44 403.4 165.57 402.05 169.28V169.27Z" fill="#0054A6"/>
<path d="M222.79 131.44C226.407 131.44 229.34 128.507 229.34 124.89C229.34 121.273 226.407 118.34 222.79 118.34C219.173 118.34 216.24 121.273 216.24 124.89C216.24 128.507 219.173 131.44 222.79 131.44Z" fill="#0054A6"/>
<path d="M466.52 153.03C466.28 155.09 465.98 157.57 465.53 160.29C466.45 160.54 467.26 160.62 467.86 160.62C469.95 160.62 470.21 159.55 470.41 159.55C470.91 159.55 471.02 159.63 471.06 159.96L471.08 160.12C471.77 164.91 468.24 167.71 464.46 167.71H463.67C460.03 177.7 450.73 182.07 442.09 182.07C433.45 182.07 425.56 177.7 424.63 170.1C423.78 163.17 429.71 155.66 440.14 155.66C441.53 155.66 442.93 155.74 444.34 155.91C446.89 153.19 450.01 149.47 452.61 145.59C457.23 138.74 464.6 134.86 468.38 134.86C470.86 134.86 472.84 135.6 472.98 136.76C473.21 138.66 467.55 145.92 466.53 153.02L466.52 153.03ZM441.01 164.5C434.45 164.5 431.51 168.05 431.91 171.27C432.22 173.83 434.7 176.22 439.17 176.22C443.64 176.22 449.06 173.41 451.21 165.9C447.54 165.16 444.18 164.5 441.01 164.5ZM454.28 150.47C453.6 151.38 451.35 154.1 449.08 156.66C450.41 156.99 451.73 157.24 453.07 157.57C453.69 154.52 454.19 152.12 454.6 150.64L454.28 150.47Z" fill="#0054A6"/>
<path d="M475.62 142.15V142.12C475.62 139.02 478.14 136.42 481.34 136.42C484.54 136.42 487.03 138.99 487.03 142.09V142.12C487.03 145.22 484.51 147.82 481.31 147.82C478.11 147.82 475.62 145.25 475.62 142.15ZM486.43 142.12V142.09C486.43 139.27 484.24 136.98 481.34 136.98C478.44 136.98 476.22 139.3 476.22 142.12V142.15C476.22 144.97 478.41 147.26 481.31 147.26C484.21 147.26 486.43 144.94 486.43 142.12ZM479.02 138.97H481.68C482.47 138.97 483.1 139.21 483.49 139.6C483.81 139.92 483.98 140.36 483.98 140.86V140.89C483.98 141.85 483.41 142.45 482.59 142.7L484.2 144.94H482.85L481.4 142.88H480.16V144.94H479.03V138.97H479.02ZM481.64 141.88C482.38 141.88 482.82 141.52 482.82 140.95V140.92C482.82 140.32 482.38 139.99 481.64 139.99H480.16V141.88H481.64Z" fill="#0054A6"/>
</svg>
